<?xml version="1.0" encoding="UTF-8"?>
<svg id="Layer_1" data-name="Layer 1" xmlns="http://www.w3.org/2000/svg" xmlns:xlink="http://www.w3.org/1999/xlink" viewBox="0 0 245 70.7">
  <defs>
    <style>
      .cls-1 {
        fill: none;
      }

      .cls-1, .cls-2, .cls-3, .cls-4 {
        stroke-width: 0px;
      }

      .cls-5 {
        filter: url(#drop-shadow-1);
      }

      .cls-2 {
        fill: #fff;
      }

      .cls-3 {
        fill: #e35c2e;
      }

      .cls-4 {
        fill: #6440fb;
      }
    </style>
    <filter id="drop-shadow-1" filterUnits="userSpaceOnUse">
      <feOffset dx="2" dy="3"/>
      <feGaussianBlur result="blur" stdDeviation="0"/>
      <feFlood flood-color="#000" flood-opacity=".2"/>
      <feComposite in2="blur" operator="in"/>
      <feComposite in="SourceGraphic"/>
    </filter>
  </defs>
  <rect class="cls-1" width="245" height="69"/>
  <path class="cls-2" d="m97.81,23.64v5.41h-14.8V6.4h14.53v5.39h-8.3v3.33h7.45v5.12h-7.45v3.4h8.58,0Z"/>
  <path class="cls-2" d="m127.87,18.1v10.97h-6.03v-10.22c0-1.83-.67-2.7-1.95-2.7-1.66,0-2.51,1.14-2.51,3.34v9.58h-5.88v-10.22c0-1.77-.67-2.7-1.93-2.7-1.64,0-2.53,1.17-2.53,3.34v9.58h-6.03V11.58h4.24l.86,1.88c1.27-1.47,3.1-2.39,5.12-2.39,2.13,0,3.93.95,5.02,2.57,1.26-1.58,3.2-2.57,5.38-2.57,3.75,0,6.24,2.92,6.24,7.03h0Z"/>
  <path class="cls-2" d="m150.09,11.56v17.48h-4.66l-.52-1.24c-1.43,1.16-3.25,1.83-5.29,1.83-5.35,0-9.19-3.9-9.19-9.33s3.83-9.27,9.19-9.27c2.07,0,3.91.68,5.35,1.88l.62-1.36h4.5Zm-5.74,8.75c0-2.27-1.66-3.98-3.92-3.98s-3.92,1.7-3.92,3.98,1.66,3.99,3.92,3.99,3.92-1.7,3.92-3.99Z"/>
  <path class="cls-2" d="m153.9,11.58h6.04v15.55l-6.04,1.92V11.57h0Zm.05-7.29h5.94v5.11h-5.94v-5.11Z"/>
  <path class="cls-2" d="m163.72,5.26h6.03v23.79h-6.03V5.26Z"/>
  <path class="cls-2" d="m81.9,54.69h6.45c0,1.62,1.25,2.41,2.67,2.41,1.31,0,2.56-.7,2.56-1.94,0-1.42-1.77-1.83-3.93-2.36-3.28-.82-7.47-1.82-7.47-6.98,0-4.46,3.28-7.02,8.64-7.02s8.56,2.79,8.56,7.4h-6.27c0-1.43-1.07-2.1-2.37-2.1-1.12,0-2.18.48-2.18,1.54,0,1.29,1.71,1.71,3.85,2.25,3.34.86,7.71,1.98,7.71,7.15s-3.81,7.52-9.08,7.52c-5.56,0-9.14-2.93-9.14-7.87h0Z"/>
  <path class="cls-2" d="m103.11,44.52h6.03v15.55l-6.03,1.92v-17.48h0Zm.05-7.29h5.94v5.11h-5.94v-5.11Z"/>
  <path class="cls-2" d="m131.05,44.52v15.54c0,5.49-3.6,8.9-9.39,8.9-4.97,0-8.45-2.5-9.26-6.64h5.82c.42,1.17,1.91,1.8,3.38,1.8,2.02,0,3.64-1.28,3.64-3.36v-.52c-1.32.84-2.88,1.31-4.57,1.31-5.02,0-8.75-3.73-8.75-8.79s3.73-8.79,8.75-8.79c2.12,0,4.04.76,5.52,2.03l.76-1.47h4.09Zm-9.37,12.06c2.17,0,3.73-1.6,3.73-3.83s-1.55-3.81-3.73-3.81-3.74,1.6-3.74,3.81,1.55,3.83,3.74,3.83Z"/>
  <path class="cls-2" d="m152.17,51.34v10.66h-6.04v-9.83c0-2.03-.77-3.04-2.29-3.04-1.88,0-2.96,1.31-2.96,3.53v9.33h-6.03v-17.48h4.23l.83,1.8c1.3-1.45,3.25-2.32,5.51-2.32,4.07,0,6.74,2.88,6.74,7.34Z"/>
  <path class="cls-2" d="m174.42,44.5v17.48h-4.66l-.52-1.24c-1.43,1.16-3.25,1.83-5.29,1.83-5.36,0-9.19-3.9-9.19-9.33s3.83-9.27,9.19-9.27c2.07,0,3.91.68,5.35,1.88l.62-1.36h4.5Zm-5.74,8.75c0-2.27-1.66-3.98-3.92-3.98s-3.92,1.7-3.92,3.98,1.66,3.99,3.92,3.99,3.92-1.7,3.92-3.99Z"/>
  <path class="cls-2" d="m190.03,56.73v5.28h-4.15c-3.87,0-6.23-2.36-6.23-6.25v-6.6h-3.21v-1.41l7.85-8.34h1.24v5.11h4.4v4.64h-4.25v5.57c0,1.25.76,2.01,2.03,2.01h2.31Z"/>
  <path class="cls-2" d="m192.62,54.5v-9.98h6.03v9.71c0,1.85.99,2.93,2.6,2.93s2.58-1.11,2.58-2.93v-9.71h6.04v9.98c0,4.89-3.44,8.08-8.62,8.08s-8.64-3.19-8.64-8.08Z"/>
  <path class="cls-2" d="m224.84,44.44v5.51h-2.34c-2.13,0-3.03.93-3.03,3.17v6.96l-6.03,1.92v-17.48h4.04l.94,1.94c1.23-1.42,2.74-2.03,4.82-2.03h1.6Z"/>
  <path class="cls-2" d="m244.88,53.1c0,.53-.05,1.05-.12,1.59h-13c.4,2.01,1.67,3.04,3.57,3.04,1.41,0,2.58-.62,3.17-1.64h6c-1.23,3.99-4.77,6.48-9.17,6.48-5.47,0-9.51-3.99-9.51-9.33s4.02-9.3,9.51-9.3,9.55,4.02,9.55,9.15h0Zm-13.02-1.74h7.08c-.53-1.75-1.79-2.69-3.61-2.69s-2.98.95-3.47,2.69Z"/>
  <path class="cls-3" d="m55.84,58.59l-12.48-7.19c-.44-.26-.98.06-.98.57v14.39c0,.5.55.82.98.57l12.48-7.19c.44-.26.44-.89,0-1.13h0Z"/>
  <path class="cls-3" d="m62.15,31.79c-.12-10.61-5.36-19.71-13.25-25.2l-6.24,4.24c6.34,3.49,11.07,9.75,12.25,17.13.55,3.43.3,6.87.34,10.3.02,2.47-1.45,4.05-3.52,3.99-2-.06-3.32-1.58-3.35-3.96-.04-2.43.05-4.87-.04-7.31-.28-7.47-5.56-13.59-12.28-15.66l-22.27,15.14c-.49,6.51,2.64,12.72,8.29,16.16,6.12,3.73,13.76,3.34,19.56-1.15,1.18-.91,1.66-.84,2.62.26,2.88,3.26,7.19,4.24,11.18,2.76,4.01-1.49,6.64-5.23,6.71-9.6.03-2.36.03-4.73,0-7.09Zm-31.2,10.48c-5.72-.13-10.27-4.9-10.14-10.61.13-5.57,4.89-10.1,10.52-10.01,5.69.1,10.26,4.87,10.14,10.61-.12,5.56-4.93,10.14-10.52,10.01Z"/>
  <g class="cls-5">
    <path class="cls-4" d="m56.4,59.41l-13.59,7.83c-.19.11-.44-.03-.44-.25v-4.07c-2.64,0-6.28,0-8.4,0-7.29.51-14.87-1.29-21.55-6.3C2.53,49.2-1.99,36.36,1.07,24.28,4.11,12.29,14.31,3.13,26.57,1.38c8.26-1.18,16.08.88,22.28,5.17l.06.04c-4.81,34.52-38.37,30.23-41.46,29.76v.08c2.23,11.01,11.62,19.49,23.8,19.59,2.55.02,7.54,0,11.12,0v-4.7c0-.22.24-.36.44-.25l13.59,7.83c.19.11.19.39,0,.5h0Z"/>
  </g>
  <path class="cls-2" d="m17.07,17.81c-.33-.26-.72-.45-1.12-.59-.45-.16-.89,0-1.06.45-.21.57-.43,1.18-.48,1.78-.26,3.26.88,5.97,3.4,8.07.09.08.18.14.26.21.34.32.38.71.12,1.04-.26.32-.72.41-1.05.1-.78-.73-1.62-1.45-2.24-2.3-1.77-2.43-2.4-5.17-1.86-8.15.09-.49.26-.98.49-1.42.62-1.16,1.79-1.59,3.04-1.17,1.02.35,1.84,1.02,2.52,1.8.98,1.11,1.85,2.3,2.77,3.46.06.08.1.16.18.26.24-.62.44-1.23.72-1.79.23-.44.51-.88.87-1.22.67-.64,1.52-.58,2.2.05.61.56,1.04.5,1.35-.28.28-.71.46-1.46.69-2.19.43-1.4.94-2.75,1.95-3.84,1.07-1.17,2.37-1.89,4-1.82.3.01.62.08.91.18.4.13.6.52.47.89-.12.39-.42.61-.82.53-1.86-.41-3.15.5-3.98,1.98-.64,1.16-.98,2.5-1.46,3.76-.24.6-.43,1.24-.8,1.76-.8,1.14-2.15,1.24-3.16.27-.31-.3-.47-.17-.63.11-.67,1.16-1.01,2.43-1.2,3.74-.02.16.07.35.13.51.62,1.62,1,3.3,1.14,5.03.03.37.03.8-.36.92-.3.1-.72.07-1-.07-.76-.37-1.16-1.09-1.25-1.87-.15-1.2-.17-2.43-.27-3.64"/>
</svg>