<svg width="66" height="63" viewBox="0 0 66 63" fill="none" xmlns="http://www.w3.org/2000/svg">
<path fill-rule="evenodd" clip-rule="evenodd" d="M0.861572 14.8098L1.12917 15.0114L13.0818 28.0049C13.0818 28.0049 13.0818 28.1394 13.2825 28.2514H12.8588H9.69222C9.52604 28.2566 9.36093 28.2229 9.20998 28.1529C9.05902 28.0829 8.92637 27.9786 8.82254 27.8481L1.44136 19.4696L0.973071 19.0215L0.861572 14.8098Z" fill="#3E3E3E"/>
<path fill-rule="evenodd" clip-rule="evenodd" d="M33.9987 26.5259C36.8836 25.8662 39.584 24.5633 41.9 22.7136C44.2159 20.8639 46.0883 18.5147 47.3785 15.8398H47.49C50.8361 17.6134 53.7699 20.0797 56.0977 23.0759C57.3764 24.7227 58.1511 26.7075 58.3276 28.7886C58.4865 29.9868 58.3617 31.2057 57.9635 32.3464C57.5652 33.4871 56.9047 34.5173 56.0356 35.3533C55.1665 36.1893 54.1134 36.8075 52.9618 37.1577C51.8101 37.5079 50.5925 37.5802 49.4078 37.3687L46.6872 36.9879C45.3244 36.8255 43.9429 37.0091 42.669 37.5218C41.3951 38.0345 40.2695 38.86 39.3952 39.9226C37.9365 41.6508 36.7758 43.612 35.9611 45.7249C34.7268 48.7777 33.7351 51.9239 32.9953 55.134L32.8615 55.6045L29.6057 55.4028C29.7395 54.4843 29.8733 53.6106 30.0294 52.7369C30.6593 48.9866 31.8313 45.3488 33.5081 41.9389C34.9575 38.8324 37.2839 36.2226 40.198 34.434C41.8217 33.5182 43.5324 32.7677 45.3046 32.1937C46.3787 31.8532 47.429 31.4416 48.4489 30.9616C48.9148 30.7479 49.2932 30.3796 49.5206 29.9186C49.748 29.4576 49.8105 28.932 49.6977 28.4301C49.6823 28.0811 49.5576 27.7459 49.3414 27.4723C49.1251 27.1988 48.8284 27.0008 48.4935 26.9067C47.499 26.5185 46.4559 26.2697 45.3938 26.1674C43.1639 26.1674 41.0677 26.1674 38.9047 26.3019C37.2545 26.3243 35.6266 26.4363 33.9987 26.5259Z" fill="url(#paint0_linear_160_242)"/>
<path fill-rule="evenodd" clip-rule="evenodd" d="M6.83789 29.4607H38.5479V29.5951L38.1465 29.8863L33.9319 33.6724C33.7953 33.8113 33.6318 33.9207 33.4516 33.9939C33.2714 34.0671 33.0782 34.1025 32.8838 34.098H25.1013V55.5373C24.9526 55.4516 24.811 55.3542 24.6776 55.2461C23.2281 54.1484 21.8009 53.0058 20.3515 51.9529C20.2271 51.8654 20.127 51.7475 20.0606 51.6103C19.9943 51.4731 19.9639 51.3211 19.9724 51.1688C19.9724 45.7324 19.9724 40.2737 19.9724 34.7925V34.0756H12.3682C12.1366 34.0805 11.9097 34.0097 11.7215 33.874L7.01629 29.6847C6.9612 29.6066 6.90164 29.5318 6.83789 29.4607Z" fill="url(#paint1_linear_160_242)"/>
<path d="M64.5493 49.1077C64.0553 47.0806 63.3837 45.1015 62.5423 43.1934C63.0985 44.5978 63.5458 46.0434 63.8803 47.5171C64.5373 49.8225 64.6063 52.257 64.081 54.5963C63.7199 56.0648 62.8986 57.3779 61.7383 58.3419C60.5779 59.3059 59.14 59.8698 57.6364 59.9505C54.5957 60.1507 51.5488 59.6686 48.7166 58.5391C44.1905 56.8847 39.9075 54.624 35.9835 51.8184L35.7828 51.6167L36.2957 50.631H36.1842L34.6455 53.521L34.8685 53.7226C39.0429 56.7181 43.5946 59.1439 48.4044 60.9362C51.4332 62.1203 54.683 62.6249 57.9263 62.4148C59.5245 62.3311 61.0534 61.7325 62.2864 60.7076C63.5195 59.6827 64.3911 58.286 64.7723 56.7245C65.3424 54.2077 65.2657 51.5865 64.5493 49.1077Z" fill="#009CE6"/>
<path d="M35.9612 51.7741C39.8852 54.5797 44.1682 56.8404 48.6943 58.4949C51.5265 59.6243 54.5734 60.1064 57.6141 59.9062C59.1177 59.8255 60.5556 59.2616 61.716 58.2976C62.8763 57.3336 63.6976 56.0205 64.0587 54.552C64.5837 52.2289 64.5224 49.8108 63.8803 47.5176C63.5386 46.0433 63.0838 44.5977 62.52 43.1939C61.5639 41.0379 60.4766 38.943 59.2643 36.9212C59.2093 36.817 59.1334 36.7255 59.0413 36.6523C59.7772 38.2205 60.58 39.7663 61.2713 41.3793L61.6281 42.3874V42.589C62.8691 45.404 63.4197 48.477 63.2336 51.5501C63.1728 52.9664 62.6677 54.3272 61.7905 55.4377C60.9134 56.5483 59.7091 57.3517 58.35 57.7332C57.1545 58.0719 55.9097 58.2007 54.6706 58.114C52.712 57.9825 50.7784 57.5985 48.9173 56.9715C44.5966 55.4791 40.4999 53.3987 36.7417 50.7884L36.2734 50.654L35.7605 51.6397L35.9612 51.7741Z" fill="#2CBAFD"/>
<path fill-rule="evenodd" clip-rule="evenodd" d="M13.7731 55.335V39.9893H12.4351C12.3436 39.9939 12.2523 39.9782 12.1675 39.9433C12.0827 39.9085 12.0066 39.8553 11.9445 39.7876C10.9188 38.3987 9.91527 36.9649 8.86719 35.4863H18.7236V51.1682C18.7401 51.3278 18.7136 51.4889 18.6469 51.6347C18.5802 51.7805 18.4758 51.9056 18.3445 51.997L14.2191 55.0438L13.7731 55.335Z" fill="url(#paint2_linear_160_242)"/>
<path d="M7.01624 17.2513C5.70216 14.1524 5.25497 10.7519 5.72287 7.41654C5.98208 5.84023 6.77269 4.40132 7.96222 3.34089C9.15174 2.28047 10.6679 1.66296 12.2567 1.59186C15.2941 1.37447 18.3416 1.84136 21.1765 2.95842C25.8789 4.7093 30.3206 7.0987 34.3779 10.0601C29.8635 6.68081 24.8927 3.96519 19.6155 1.99511C16.6109 0.809145 13.3808 0.311673 10.1605 0.538945C8.46218 0.614212 6.84139 1.27434 5.57037 2.40844C4.29936 3.54254 3.45556 5.08152 3.18071 6.76686C2.68698 10.323 3.16488 13.947 4.56329 17.2513C4.63654 17.3805 4.75621 17.4767 4.89778 17.5201H7.41764C7.33335 17.5138 7.2521 17.4858 7.18178 17.4387C7.11145 17.3916 7.05443 17.327 7.01624 17.2513Z" fill="#009CE6"/>
<path d="M6.99396 9.05245C7.03821 7.64257 7.5229 6.28241 8.37938 5.16465C9.23586 4.04689 10.4207 3.2282 11.7661 2.82453C12.6447 2.5721 13.551 2.42914 14.4643 2.39888C16.8675 2.36013 19.257 2.77034 21.511 3.60862C25.9246 5.15122 30.1045 7.29983 33.9319 9.99336L34.5786 10.3966C34.5786 10.2622 34.5786 10.2398 34.5786 10.2174H34.4671C30.4098 7.25604 25.9681 4.86664 21.2657 3.11576C18.4308 1.9987 15.3833 1.53181 12.3459 1.7492C10.7571 1.8203 9.24095 2.43781 8.05143 3.49823C6.86191 4.55866 6.0713 5.99758 5.81208 7.57388C5.34418 10.9093 5.79138 14.3097 7.10546 17.4086C7.13753 17.4693 7.18187 17.5225 7.23563 17.565C7.2894 17.6074 7.3514 17.6381 7.41765 17.6551H8.46573C8.46573 17.3414 8.30964 17.1622 8.24274 16.9606C7.28618 14.4398 6.86094 11.7469 6.99396 9.05245Z" fill="#2CBAFD"/>
<path fill-rule="evenodd" clip-rule="evenodd" d="M44.2566 14.809C44.2564 15.8053 43.9611 16.779 43.4082 17.6061C42.8552 18.4331 42.0698 19.0761 41.1518 19.4532C40.2339 19.8302 39.225 19.9242 38.2537 19.7232C37.2824 19.5222 36.3926 19.0353 35.6977 18.3245C35.0028 17.6137 34.5343 16.7112 34.3517 15.7319C34.1692 14.7527 34.2809 13.741 34.6727 12.8257C35.0645 11.9105 35.7186 11.1331 36.5517 10.5927C37.3847 10.0522 38.3591 9.77305 39.3507 9.79084C40.6599 9.81433 41.9077 10.3534 42.8252 11.2919C43.7428 12.2305 44.2568 13.4935 44.2566 14.809Z" fill="#3E3E3E"/>
<defs>
<linearGradient id="paint0_linear_160_242" x1="54.6259" y1="21.3285" x2="25.0548" y2="50.7637" gradientUnits="userSpaceOnUse">
<stop stop-color="#2CB2F0"/>
<stop offset="1" stop-color="#076C9C"/>
</linearGradient>
<linearGradient id="paint1_linear_160_242" x1="22.7375" y1="55.5149" x2="22.7375" y2="29.4607" gradientUnits="userSpaceOnUse">
<stop/>
<stop offset="1" stop-color="#3E3E3E"/>
</linearGradient>
<linearGradient id="paint2_linear_160_242" x1="200.569" y1="1085.88" x2="112.937" y2="1129.42" gradientUnits="userSpaceOnUse">
<stop stop-color="#2CB2F0"/>
<stop offset="1" stop-color="#076C9C"/>
</linearGradient>
</defs>
</svg>
